<svg xmlns="http://www.w3.org/2000/svg" viewBox="0 0 310.8 282.43"><defs><style>.cls-1{fill:#ffaa2b;}</style></defs><g id="Layer_2" data-name="Layer 2"><g id="Layer_1-2" data-name="Layer 1"><path class="cls-1" d="M1.16,246.4a1.32,1.32,0,0,1-.62-.14,1,1,0,0,1-.4-.42,1.59,1.59,0,0,1-.14-.68V219.64A1.29,1.29,0,0,1,.14,219a.92.92,0,0,1,.42-.38,1.42,1.42,0,0,1,.68-.14,4.44,4.44,0,0,1,.68,0,1.34,1.34,0,0,1,.5.16,1.39,1.39,0,0,1,.42.36l14.16,17H15.52l14.28-17.2a.79.79,0,0,1,.38-.28,1.6,1.6,0,0,1,.52-.1c.2,0,.42,0,.66,0a1.29,1.29,0,0,1,.66.14.91.91,0,0,1,.4.42,1.52,1.52,0,0,1,.14.68v25.52a1.35,1.35,0,0,1-.14.62,1,1,0,0,1-.42.4,1.55,1.55,0,0,1-.68.14,1.32,1.32,0,0,1-.62-.14,1,1,0,0,1-.4-.42,1.59,1.59,0,0,1-.14-.68V222L17.32,237.48a1.48,1.48,0,0,1-.28.28,1.22,1.22,0,0,1-.36.18,1.51,1.51,0,0,1-.44.06,1.16,1.16,0,0,1-.4-.06.83.83,0,0,1-.3-.2,3.53,3.53,0,0,0-.38-.34L2.36,222v23.24a1.35,1.35,0,0,1-.14.62,1,1,0,0,1-.4.4A1.4,1.4,0,0,1,1.16,246.4Z"/><path class="cls-1" d="M52.24,246.4a19.5,19.5,0,0,1-6.14-.88A11.4,11.4,0,0,1,41.74,243a10.54,10.54,0,0,1-2.6-4.06,15.74,15.74,0,0,1-.86-5.34V219.68a1.66,1.66,0,0,1,.12-.7.74.74,0,0,1,.38-.38,2.1,2.1,0,0,1,1.4,0,.82.82,0,0,1,.4.4,1.62,1.62,0,0,1,.14.72v13.84A11.67,11.67,0,0,0,42,239.12a8.53,8.53,0,0,0,3.84,3.64A14.73,14.73,0,0,0,52.36,244a14.64,14.64,0,0,0,6.5-1.28,8.53,8.53,0,0,0,3.84-3.64,11.75,11.75,0,0,0,1.26-5.6V219.44a1.08,1.08,0,0,1,.12-.56.66.66,0,0,1,.4-.3,2.12,2.12,0,0,1,.72-.1,1.56,1.56,0,0,1,.66.12.75.75,0,0,1,.38.4,1.8,1.8,0,0,1,.12.72v13.92a15.11,15.11,0,0,1-.88,5.32,10.59,10.59,0,0,1-2.64,4,11.8,11.8,0,0,1-4.4,2.54A19.85,19.85,0,0,1,52.24,246.4Z"/><path class="cls-1" d="M73.08,246.4a2,2,0,0,1-.76-.12.75.75,0,0,1-.4-.38,1.73,1.73,0,0,1-.12-.7V219.72a2.05,2.05,0,0,1,.1-.74.67.67,0,0,1,.36-.38,2.1,2.1,0,0,1,1.4,0A.74.74,0,0,1,74,219a1.66,1.66,0,0,1,.12.7V244h20.6a1.92,1.92,0,0,1,.7.1.64.64,0,0,1,.38.36,1.66,1.66,0,0,1,.12.7,2.12,2.12,0,0,1-.1.72.71.71,0,0,1-.34.4,1.56,1.56,0,0,1-.68.12Z"/><path class="cls-1" d="M125.24,218.48a1.43,1.43,0,0,1,.64.12.75.75,0,0,1,.36.4,1.8,1.8,0,0,1,.12.72,1.43,1.43,0,0,1-.14.66.92.92,0,0,1-.4.38,1.56,1.56,0,0,1-.66.12H114V245.2a1.46,1.46,0,0,1-.14.66,1,1,0,0,1-.4.4,1.63,1.63,0,0,1-1.32,0,.91.91,0,0,1-.38-.42,1.76,1.76,0,0,1-.12-.68V220.88H100.28a1.69,1.69,0,0,1-.7-.12.78.78,0,0,1-.38-.38,1.59,1.59,0,0,1-.12-.66,1.8,1.8,0,0,1,.12-.72.75.75,0,0,1,.36-.4,1.43,1.43,0,0,1,.64-.12Z"/><path class="cls-1" d="M132,246.4a1.69,1.69,0,0,1-.7-.12.71.71,0,0,1-.36-.4,2.12,2.12,0,0,1-.1-.72V219.68a1.66,1.66,0,0,1,.12-.7.74.74,0,0,1,.38-.38,2.1,2.1,0,0,1,1.4,0,.67.67,0,0,1,.36.38,2.05,2.05,0,0,1,.1.74V245.2a1.73,1.73,0,0,1-.12.7.78.78,0,0,1-.38.38A1.69,1.69,0,0,1,132,246.4Z"/><path class="cls-1" d="M139.72,246.4a1.32,1.32,0,0,1-.62-.14,1,1,0,0,1-.4-.42,1.59,1.59,0,0,1-.14-.68V219.64a1.29,1.29,0,0,1,.14-.64.92.92,0,0,1,.42-.38,1.4,1.4,0,0,1,.68-.14,4.44,4.44,0,0,1,.68,0,1.34,1.34,0,0,1,.5.16,1.68,1.68,0,0,1,.42.36l14.16,17h-1.48l14.28-17.2a.75.75,0,0,1,.38-.28,1.55,1.55,0,0,1,.52-.1c.2,0,.42,0,.66,0a1.29,1.29,0,0,1,.66.14,1,1,0,0,1,.4.42,1.52,1.52,0,0,1,.14.68v25.52a1.35,1.35,0,0,1-.14.62,1,1,0,0,1-.42.4,1.55,1.55,0,0,1-.68.14,1.32,1.32,0,0,1-.62-.14,1,1,0,0,1-.4-.42,1.45,1.45,0,0,1-.14-.68V222l-12.84,15.48a1.48,1.48,0,0,1-.28.28,1.22,1.22,0,0,1-.36.18,1.51,1.51,0,0,1-.44.06,1.12,1.12,0,0,1-.4-.06.83.83,0,0,1-.3-.2,4.87,4.87,0,0,0-.38-.34L140.92,222v23.24a1.35,1.35,0,0,1-.14.62,1,1,0,0,1-.4.4A1.4,1.4,0,0,1,139.72,246.4Z"/><path class="cls-1" d="M177.64,246.4a1.66,1.66,0,0,1-.7-.12.71.71,0,0,1-.36-.4,2.12,2.12,0,0,1-.1-.72V219.68a1.66,1.66,0,0,1,.12-.7.71.71,0,0,1,.38-.38,1.66,1.66,0,0,1,.7-.12,1.69,1.69,0,0,1,.7.12.67.67,0,0,1,.36.38,2.31,2.31,0,0,1,.1.74V245.2a1.73,1.73,0,0,1-.12.7.78.78,0,0,1-.38.38A1.69,1.69,0,0,1,177.64,246.4Z"/><path class="cls-1" d="M185.24,246.4a2,2,0,0,1-.76-.12.75.75,0,0,1-.4-.38,1.73,1.73,0,0,1-.12-.7V219.72a2.05,2.05,0,0,1,.1-.74.64.64,0,0,1,.36-.38,1.69,1.69,0,0,1,.7-.12,1.73,1.73,0,0,1,.7.12.74.74,0,0,1,.38.38,1.66,1.66,0,0,1,.12.7V244h20.6a2,2,0,0,1,.7.1.64.64,0,0,1,.38.36,1.66,1.66,0,0,1,.12.7,2.4,2.4,0,0,1-.1.72.71.71,0,0,1-.34.4,1.56,1.56,0,0,1-.68.12Z"/><path class="cls-1" d="M213.12,246.4a2,2,0,0,1-.76-.12.75.75,0,0,1-.4-.38,1.73,1.73,0,0,1-.12-.7V219.72a2.05,2.05,0,0,1,.1-.74.62.62,0,0,1,.36-.38,1.69,1.69,0,0,1,.7-.12,1.73,1.73,0,0,1,.7.12.74.74,0,0,1,.38.38,1.66,1.66,0,0,1,.12.7V244h20.6a2,2,0,0,1,.7.1.64.64,0,0,1,.38.36,1.66,1.66,0,0,1,.12.7,2.4,2.4,0,0,1-.1.72.71.71,0,0,1-.34.4,1.56,1.56,0,0,1-.68.12Z"/><path class="cls-1" d="M241,246.4a1.66,1.66,0,0,1-.7-.12.65.65,0,0,1-.36-.4,2.12,2.12,0,0,1-.1-.72V219.68a1.66,1.66,0,0,1,.12-.7.71.71,0,0,1,.38-.38,1.66,1.66,0,0,1,.7-.12,1.73,1.73,0,0,1,.7.12.67.67,0,0,1,.36.38,2.31,2.31,0,0,1,.1.74V245.2a1.73,1.73,0,0,1-.12.7.78.78,0,0,1-.38.38A1.73,1.73,0,0,1,241,246.4Z"/><path class="cls-1" d="M262.76,246.56a21.06,21.06,0,0,1-6.7-1,16.2,16.2,0,0,1-5.3-2.88,12.72,12.72,0,0,1-4.68-10.06,13.93,13.93,0,0,1,1.2-5.84,13.31,13.31,0,0,1,3.38-4.56,15.25,15.25,0,0,1,5.18-3,19.71,19.71,0,0,1,6.56-1,21.11,21.11,0,0,1,6.7,1,15.68,15.68,0,0,1,5.28,2.9,13.07,13.07,0,0,1,3.44,4.5,13.63,13.63,0,0,1,1.22,5.82,13.14,13.14,0,0,1-4.58,10.18,15.54,15.54,0,0,1-5.16,2.92A20.11,20.11,0,0,1,262.76,246.56Zm-.24-2.36a18.25,18.25,0,0,0,5.72-.86,13.72,13.72,0,0,0,4.48-2.44,11.37,11.37,0,0,0,2.92-3.74,11.5,11.5,0,0,0,0-9.56,11.2,11.2,0,0,0-2.94-3.74,13.55,13.55,0,0,0-4.48-2.44,19.06,19.06,0,0,0-11.32,0,13.45,13.45,0,0,0-4.48,2.44,10.84,10.84,0,0,0-2.94,3.76,11,11,0,0,0-1,4.82,10.69,10.69,0,0,0,4,8.48,14,14,0,0,0,4.48,2.42A17.75,17.75,0,0,0,262.52,244.2Z"/><path class="cls-1" d="M284.08,246.36a1.21,1.21,0,0,1-.6-.14,1,1,0,0,1-.38-.42,1.45,1.45,0,0,1-.14-.68v-25.6a.93.93,0,0,1,.16-.58,1,1,0,0,1,.46-.34,1.86,1.86,0,0,1,.7-.12,4.65,4.65,0,0,1,.88.06,1.14,1.14,0,0,1,.56.38l22.72,24v-23.4a1,1,0,0,1,.14-.58.85.85,0,0,1,.42-.34,1.69,1.69,0,0,1,.68-.12,1.23,1.23,0,0,1,.62.14.82.82,0,0,1,.38.42,1.69,1.69,0,0,1,.12.68v25.44a1.16,1.16,0,0,1-.18.66,1.25,1.25,0,0,1-.5.4,1.89,1.89,0,0,1-.72.14,2,2,0,0,1-.72-.12,1.57,1.57,0,0,1-.64-.52L285.32,222v23.16a1.46,1.46,0,0,1-.14.66,1.08,1.08,0,0,1-.42.4A1.59,1.59,0,0,1,284.08,246.36Z"/><path class="cls-1" d="M101.78,282.29a13.84,13.84,0,0,1-4.62-.71,9.74,9.74,0,0,1-3.46-2,8.82,8.82,0,0,1-2.15-3.2,11,11,0,0,1-.75-4.15,10,10,0,0,1,.76-3.95,8.31,8.31,0,0,1,2.21-3,10.49,10.49,0,0,1,3.54-2,15.37,15.37,0,0,1,4.75-.74,19.61,19.61,0,0,1,3,.21,13.14,13.14,0,0,1,2.38.59,8.49,8.49,0,0,1,1.76.85,5,5,0,0,1,.82.66,1,1,0,0,1,.36.63,1,1,0,0,1-.06.42,2.62,2.62,0,0,1-.22.48,1.84,1.84,0,0,1-.5.47.94.94,0,0,1-.51.17,1.17,1.17,0,0,1-.4-.14,5.56,5.56,0,0,1-.69-.42,8.2,8.2,0,0,0-1.42-.67,9.93,9.93,0,0,0-2-.49A17.28,17.28,0,0,0,102,265a11,11,0,0,0-4.68.9,6.54,6.54,0,0,0-2.92,2.52,7.08,7.08,0,0,0-1,3.81,7.56,7.56,0,0,0,1,4,6.65,6.65,0,0,0,2.93,2.6,10.42,10.42,0,0,0,4.6.93,18.53,18.53,0,0,0,2.63-.17,14.44,14.44,0,0,0,2.06-.45,11.31,11.31,0,0,0,1.61-.62v-5.12h-7a1.55,1.55,0,0,1-.59-.1.79.79,0,0,1-.4-.35,1.88,1.88,0,0,1,0-1.47.8.8,0,0,1,.4-.33,1.55,1.55,0,0,1,.59-.1h8.1a1.69,1.69,0,0,1,.86.18,1.13,1.13,0,0,1,.47.52,2,2,0,0,1,.15.84V279a1.39,1.39,0,0,1-.52,1,5.73,5.73,0,0,1-1.38.95,9.54,9.54,0,0,1-1.74.7,14.37,14.37,0,0,1-2.33.49A22.13,22.13,0,0,1,101.78,282.29Z"/><path class="cls-1" d="M120,282.24a1.58,1.58,0,0,1-.82-.16.7.7,0,0,1-.35-.44,2.4,2.4,0,0,1-.09-.69v-17a1.75,1.75,0,0,1,.11-.64,1,1,0,0,1,.38-.43,1.54,1.54,0,0,1,.8-.17h9.77a8.34,8.34,0,0,1,2.61.41,6.78,6.78,0,0,1,2.18,1.19,5.61,5.61,0,0,1,1.51,2,6.51,6.51,0,0,1,.56,2.76,5.59,5.59,0,0,1-.4,2,7.63,7.63,0,0,1-1.15,2,6.48,6.48,0,0,1-1.82,1.54,5.64,5.64,0,0,1-2.45.7h-9.58V281a2.62,2.62,0,0,1-.08.67.75.75,0,0,1-.35.43A1.65,1.65,0,0,1,120,282.24Zm1.26-9.44h9.19a3.6,3.6,0,0,0,1.26-.24,3.73,3.73,0,0,0,2.08-1.89,3.6,3.6,0,0,0,.35-1.68,3.41,3.41,0,0,0-.59-2,3.61,3.61,0,0,0-1.58-1.27,5.46,5.46,0,0,0-2.22-.44h-8.49Zm15,9.13a1.13,1.13,0,0,1-1,.25,1.63,1.63,0,0,1-.77-.67l-5.1-7.22,2.78-.37,4.48,6.16a2.5,2.5,0,0,1,.35.73.69.69,0,0,1-.13.57A2.48,2.48,0,0,1,136.16,281.93Z"/><path class="cls-1" d="M155.23,282.43a14.89,14.89,0,0,1-4.75-.71,11.53,11.53,0,0,1-3.72-2,9,9,0,0,1-2.42-3.12,9.31,9.31,0,0,1-.84-4,9.9,9.9,0,0,1,.83-4.11,9,9,0,0,1,2.36-3.2,11.15,11.15,0,0,1,3.64-2.09,14,14,0,0,1,4.65-.74,14.57,14.57,0,0,1,4.73.73,10.86,10.86,0,0,1,3.71,2.06,9.19,9.19,0,0,1,2.41,3.16,9.51,9.51,0,0,1,.85,4.07,9.32,9.32,0,0,1-.84,4,9.46,9.46,0,0,1-2.36,3.15,10.81,10.81,0,0,1-3.63,2.08A14.17,14.17,0,0,1,155.23,282.43Zm-.17-2.52a12,12,0,0,0,3.71-.54,8.86,8.86,0,0,0,2.87-1.54,6.68,6.68,0,0,0,2.52-5.37,7,7,0,0,0-.65-3,6.9,6.9,0,0,0-1.88-2.36,8.64,8.64,0,0,0-2.88-1.54,12.52,12.52,0,0,0-7.34,0,8.5,8.5,0,0,0-2.87,1.54,6.84,6.84,0,0,0-1.86,2.38,6.93,6.93,0,0,0-.66,3,6.76,6.76,0,0,0,2.52,5.35,8.84,8.84,0,0,0,2.87,1.53A11.79,11.79,0,0,0,155.06,279.91Z"/><path class="cls-1" d="M183.85,282.32a13.27,13.27,0,0,1-4.4-.66,8.65,8.65,0,0,1-3.14-1.86,7.32,7.32,0,0,1-1.86-2.9,11.19,11.19,0,0,1-.6-3.76V264a2.71,2.71,0,0,1,.08-.66.73.73,0,0,1,.37-.44,1.73,1.73,0,0,1,.81-.16,1.76,1.76,0,0,1,.83.16.83.83,0,0,1,.36.44,2.09,2.09,0,0,1,.1.69v9.16a7.21,7.21,0,0,0,.81,3.48,5.58,5.58,0,0,0,2.48,2.34,11.17,11.17,0,0,0,8.45,0,5.51,5.51,0,0,0,2.48-2.33,7.34,7.34,0,0,0,.81-3.54v-9.32a1.6,1.6,0,0,1,.1-.56.77.77,0,0,1,.38-.4,1.93,1.93,0,0,1,.81-.14,1.54,1.54,0,0,1,.8.17.78.78,0,0,1,.35.45,2.24,2.24,0,0,1,.08.67v9.21a10.86,10.86,0,0,1-.61,3.76,7.47,7.47,0,0,1-1.88,2.88,8.42,8.42,0,0,1-3.16,1.85A13.92,13.92,0,0,1,183.85,282.32Z"/><path class="cls-1" d="M203.36,282.24a1.64,1.64,0,0,1-.81-.16.67.67,0,0,1-.35-.44,2.87,2.87,0,0,1-.07-.69V264a1.83,1.83,0,0,1,.1-.64.79.79,0,0,1,.38-.45,1.53,1.53,0,0,1,.78-.17h9.8a8,8,0,0,1,2.56.41,6.3,6.3,0,0,1,2.17,1.23,6.14,6.14,0,0,1,1.52,2,6.32,6.32,0,0,1,.55,2.72,6.25,6.25,0,0,1-.55,2.69,5.85,5.85,0,0,1-1.53,2,7,7,0,0,1-2.18,1.22,7.87,7.87,0,0,1-2.57.42h-8.51V281a2.62,2.62,0,0,1-.08.67.75.75,0,0,1-.35.43A1.72,1.72,0,0,1,203.36,282.24Zm1.29-9.44h8.54a5.09,5.09,0,0,0,2.1-.43,3.77,3.77,0,0,0,1.58-1.29,3.56,3.56,0,0,0,.61-2.09,3.43,3.43,0,0,0-.59-2,3.89,3.89,0,0,0-1.57-1.29,5.09,5.09,0,0,0-2.16-.45h-8.51Z"/><path class="cls-1" d="M227.65,189.5a1.5,1.5,0,0,1-1.5,1.5H84.65a1.5,1.5,0,1,1,0-3h20.5V115.5a1.5,1.5,0,0,1,1.5-1.5h.54a1.5,1.5,0,0,1,1.5,1.5V188h5V115.5a1.5,1.5,0,0,1,1.5-1.5h.54a1.5,1.5,0,0,1,1.5,1.5V188h8.51V76.67a1.51,1.51,0,0,1,1.5-1.5h.55a1.5,1.5,0,0,1,1.5,1.5V188h5.67V76.67a1.51,1.51,0,0,1,1.5-1.5H137a1.5,1.5,0,0,1,1.5,1.5V188h6.38V21.33a1.5,1.5,0,0,1,1.5-1.5h.55a1.5,1.5,0,0,1,1.5,1.5V188h5.21V1.5a1.5,1.5,0,0,1,1.5-1.5h.55a1.5,1.5,0,0,1,1.5,1.5V188h4.71V21.33a1.5,1.5,0,0,1,1.5-1.5h.55a1.5,1.5,0,0,1,1.5,1.5V188h6.38V76.67a1.5,1.5,0,0,1,1.5-1.5h.55a1.5,1.5,0,0,1,1.5,1.5V188H181V76.67a1.5,1.5,0,0,1,1.5-1.5h.55a1.5,1.5,0,0,1,1.5,1.5V188h8.51V115.5a1.5,1.5,0,0,1,1.5-1.5h.55a1.5,1.5,0,0,1,1.5,1.5V188h5V115.5a1.5,1.5,0,0,1,1.5-1.5h.55a1.5,1.5,0,0,1,1.5,1.5V188h21A1.5,1.5,0,0,1,227.65,189.5Z"/></g></g></svg>